# This file uses centimeters as units for non-parametric coordinates.

v 0.085696 0.041550 0.503165
v -0.407106 0.006742 0.533144
v -0.198606 0.138118 0.728498
v -0.087044 0.145617 0.723165
v -0.149134 0.206761 0.685104
v 0.051050 0.275777 0.463724
v -0.025402 0.249819 0.546744
v 0.076807 0.204132 0.545812
v -0.415995 0.169324 0.575791
v -0.321179 0.228254 0.567305
v -0.407947 0.243241 0.492087
v -0.117246 0.262050 0.276854
v -0.225692 0.255444 0.283289
v -0.263950 0.284262 0.365716
v -0.165900 0.273305 0.427924
v -0.076545 0.296859 0.356758
v -0.189872 -0.021633 0.686593
v -0.078309 -0.014134 0.681260
v -0.107490 0.101684 0.233649
v -0.109125 0.075199 0.334278
v -0.204349 0.068798 0.338830
v -0.219053 0.094185 0.238982
v -0.869025 0.218426 0.282601
v -0.819552 0.287069 0.239208
v -0.876077 0.246412 0.174444
v -0.727335 0.313449 -0.050117
v -0.670811 0.354106 0.014647
v -0.615772 0.320948 -0.055450
v -0.718601 0.153698 -0.092022
v -0.607038 0.161197 -0.097355
v -0.867342 0.086661 0.132539
v -0.860291 0.058675 0.240697
v 0.745897 0.546600 -0.631869
v 0.634334 0.539101 -0.626536
v 0.690858 0.579758 -0.561772
v 0.754631 0.386849 -0.673773
v 0.643068 0.379350 -0.668440
v 0.878416 0.503792 -0.441052
v 0.823377 0.536950 -0.370956
v 0.885467 0.475806 -0.332895
v 0.894201 0.316055 -0.374799
v 0.887150 0.344041 -0.482957
vt 0.625000 1.000000
vt 0.435408 1.000000
vt 0.375000 0.939592
vt 0.375000 0.310408
vt 0.375000 0.557047
vt 0.314592 0.189592
vt 0.435408 0.000000
vt 0.435408 0.189592
vt 0.625000 0.340659
vt 0.437494 0.455810
vt 0.579049 0.454049
vt 0.875000 0.190712
vt 0.815557 0.250000
vt 0.625000 0.559288
vt 0.625000 0.750000
vt 0.625000 0.750000
vt 0.625000 0.558168
vt 0.375000 0.750000
vt 0.435408 0.500000
vt 0.564592 0.500000
vt 0.625000 0.560408
vt 0.564592 0.750000
vt 0.814592 0.250000
vt 0.685408 0.250000
vt 0.814592 0.189592
vt 0.875000 0.000000
vt 0.625000 0.189592
vt 0.685408 -0.000000
vt 0.625000 0.000000
vt 0.435408 0.310408
vt 0.580810 0.312494
vt 0.435408 0.560408
vt 0.564592 0.560408
vt 0.435408 0.750000
vt 0.685408 0.189592
vt 0.814592 -0.000000
vt 0.125000 -0.000000
vt 0.314592 0.000000
vt 0.125000 0.192953
vt 0.437494 0.500000
vt 0.565558 0.500000
vt 0.625000 0.750000
vt 0.375000 0.750000
vt 0.375000 0.560408
vt 0.875000 0.000000
vt 0.875000 0.189592
vt 0.625000 0.192953
vt 0.625000 0.000000
vt 0.687494 0.250000
vt 0.625000 0.500000
vt 0.625000 0.449113
vt 0.625000 0.801562
vt 0.573438 0.750000
vt 0.823438 0.000000
vt 0.875000 0.000000
vt 0.875000 0.000000
vn 0.052813 -0.965926 -0.253373
vn 0.052813 -0.965926 -0.253373
vn 0.052813 -0.965926 -0.253373
vn 0.052813 -0.965926 -0.253373
vn 0.052813 -0.965926 -0.253373
vn 0.052813 -0.965926 -0.253373
vn 0.052813 -0.965926 -0.253373
vn 0.052813 -0.965926 -0.253373
vn 0.052813 -0.965926 -0.253373
vn 0.052813 -0.965926 -0.253373
vn 0.052813 -0.965926 -0.253373
vn 0.052813 -0.965926 -0.253373
vn 0.052813 -0.965926 -0.253373
vn 0.052813 -0.965926 -0.253373
vn 0.052813 -0.965926 -0.253373
vn 0.052813 -0.965926 -0.253373
vn -0.322303 0.661554 0.677102
vn -0.026949 0.880954 0.472435
vn -0.172712 0.895036 0.411194
vn -0.338920 0.692608 0.636732
vn 0.576060 -0.177786 0.797839
vn -0.413242 -0.252123 0.875023
vn -0.411876 -0.252210 0.875641
vn 0.574484 -0.178149 0.798894
vn 0.318243 0.728519 0.606615
vn 0.357300 0.745815 0.562225
vn 0.089495 0.923810 0.372244
vn 0.103081 0.918450 0.381870
vn 0.366138 0.747848 0.553774
vn 0.092644 0.937464 0.335528
vn -0.168207 0.975990 0.138385
vn -0.058176 0.984515 0.165364
vn -0.136894 0.917170 0.374244
vn -0.202520 0.921376 0.331742
vn -0.352535 0.702963 0.617707
vn 0.026272 0.992156 0.122214
vn -0.423530 0.895311 -0.137990
vn -0.175755 0.980022 0.093096
vn -0.469741 0.871496 -0.140843
vn 0.555881 0.240878 -0.795597
vn -0.738981 0.133456 -0.660376
vn -0.739873 0.133144 -0.659440
vn 0.557780 0.240622 -0.794344
vn 0.206534 0.961531 -0.181113
vn 0.297440 0.933287 -0.201259
vn -0.025483 0.996362 0.081325
vn -0.660378 -0.224109 0.716712
vn -0.923911 0.049019 -0.379453
vn -0.923911 0.049019 -0.379453
vn -0.660870 -0.224023 0.716285
vn -0.537870 0.840995 -0.058516
vn -0.476788 0.869403 -0.129660
vn -0.678344 0.151501 -0.718955
vn 0.557109 0.239072 -0.795282
vn 0.556776 0.239112 -0.795503
vn -0.678344 0.151501 -0.718955
vn 0.368003 0.918374 -0.145474
vn 0.450398 0.890274 -0.067487
vn -0.739203 0.132576 -0.660305
vn 0.609581 0.232153 -0.757968
vn 0.609581 0.232153 -0.757968
vn -0.739171 0.132587 -0.660338
vn 0.908929 0.151584 -0.388421
vn 0.787496 -0.115735 0.605355
vn 0.787575 -0.115705 0.605258
vn 0.908929 0.151584 -0.388421
vn 0.749254 -0.129410 0.649516
vn 0.749254 -0.129410 0.649516
vn -0.557433 -0.239033 0.795067
vn -0.557391 -0.239038 0.795095
vn 0.052813 -0.965926 -0.253373
vn 0.052813 -0.965926 -0.253373
vn 0.052813 -0.965926 -0.253373
vn 0.052813 -0.965926 -0.253373
vn 0.052813 -0.965926 -0.253373
vn 0.052813 -0.965926 -0.253373
vn 0.052813 -0.965926 -0.253373
vn 0.052813 -0.965926 -0.253373
s 1
g Checkmark Confirm
f 2/43/1 21/53/2 20/52/3 1/1/4 18/2/5 17/3/6
f 1/29/4 20/54/3 19/45/7 37/26/8 36/36/9 42/28/10 41/48/11
f 22/16/12 21/53/2 2/43/1 32/18/13 31/34/14 29/22/15 30/42/16
s 2
f 3/4/17 5/30/18 10/10/19 9/5/20
s 3
f 4/8/21 3/6/22 17/38/23 18/7/24
s 2
f 5/30/18 4/8/25 8/47/26 7/31/27
f 6/49/28 8/47/26 40/27/29 39/24/30
f 7/31/27 6/9/28 16/51/31 15/11/32
f 9/5/20 11/40/33 24/19/34 23/44/35
f 11/40/33 10/10/19 15/11/32 14/41/36
f 12/12/37 16/13/31 35/23/38 34/46/39
s 3
f 13/17/40 12/14/41 19/15/42 22/16/43
s 2
f 14/41/36 13/17/44 28/21/45 27/20/46
s 3
f 23/44/47 25/32/48 31/34/49 32/18/50
s 2
f 25/32/51 24/19/34 27/20/46 26/33/52
s 3
f 26/33/53 28/21/54 30/42/55 29/22/56
s 2
f 33/25/57 35/23/38 39/24/30 38/35/58
s 3
f 34/46/59 33/25/60 36/36/61 37/26/62
f 38/35/63 40/27/64 41/48/65 42/28/66
f 4/8/21 18/7/24 1/29/67 8/47/68
s 2
f 5/30/18 7/31/27 15/11/32 10/10/19
s 3
f 25/32/48 26/33/53 29/22/56 31/34/49
f 38/35/63 42/28/66 36/36/61 33/25/60
f 2/37/69 17/38/23 3/6/22 9/39/70
s 2
f 11/40/33 14/41/36 27/20/46 24/19/34
s 3
f 13/17/40 22/16/43 30/42/55 28/21/54
f 2/43/69 9/5/70 23/44/47 32/18/50
f 19/45/42 12/12/41 34/46/59 37/26/62
s 2
f 16/13/31 6/49/28 39/24/30 35/23/38
s 3
f 8/47/68 1/29/67 41/48/65 40/27/64
s 2
f 3/6/17 4/8/25 5/30/18
f 6/49/28 7/31/27 8/47/26
f 9/5/20 10/10/19 11/40/33
f 12/50/37 13/17/44 14/41/36 15/11/32 16/51/31
s off
f 19/15/71 20/52/72 21/53/73 22/16/74
s 2
f 23/44/35 24/19/34 25/32/51
f 26/33/52 27/20/46 28/21/45
f 33/25/57 34/46/39 35/23/38
f 38/35/58 39/24/30 40/27/29
s off
f 19/45/75 20/54/76 21/55/77 22/56/78
v -1.329342 -0.463989 0.880943
v -1.242407 -0.500000 0.881200
v -1.242587 -0.463990 0.968135
v -1.242407 -0.377056 1.004144
v -1.329341 -0.377056 0.968134
v -1.365351 -0.377056 0.881200
v 1.305009 -0.463989 0.880943
v 1.341017 -0.377056 0.881200
v 1.305008 -0.377056 0.968134
v 1.218073 -0.377056 1.004144
v 1.218253 -0.463990 0.968135
v 1.218073 -0.500000 0.881200
v -1.328961 -0.041542 0.890473
v -1.365351 -0.127330 0.883720
v -1.328975 -0.143046 0.968311
v -1.240771 -0.145880 1.004144
v -1.240542 -0.057789 0.974203
v -1.240771 -0.006188 0.896782
v 1.304628 -0.041542 0.890473
v 1.216437 -0.006188 0.896782
v 1.216208 -0.057789 0.974203
v 1.216437 -0.145880 1.004144
v 1.304642 -0.143046 0.968311
v 1.341017 -0.127330 0.883720
v -1.330122 0.354523 -0.966711
v -1.365351 0.335343 -0.877595
v -1.330120 0.426393 -0.873154
v -1.244908 0.464037 -0.869091
v -1.245057 0.445407 -0.962186
v -1.244908 0.360241 -1.004144
v 1.305789 0.354523 -0.966711
v 1.220574 0.360241 -1.004144
v 1.220724 0.445407 -0.962186
v 1.220574 0.464037 -0.869091
v 1.305786 0.426393 -0.873154
v 1.341017 0.335343 -0.877595
v -1.329342 -0.463990 -0.881329
v -1.365351 -0.377056 -0.881200
v -1.329341 -0.377056 -0.968134
v -1.242407 -0.377056 -1.004144
v -1.242320 -0.463990 -0.968134
v -1.242407 -0.500000 -0.881200
v 1.305008 -0.463990 -0.881329
v 1.218073 -0.500000 -0.881200
v 1.217987 -0.463990 -0.968134
v 1.218073 -0.377056 -1.004144
v 1.305008 -0.377056 -0.968134
v 1.341017 -0.377056 -0.881200
v -1.313425 -0.448010 0.952097
v 1.289091 -0.448010 0.952097
v -1.312709 -0.071280 0.956659
v 1.288375 -0.071280 0.956659
v -1.314538 0.425677 -0.946994
v 1.290204 0.425677 -0.946994
v -1.313329 -0.448011 -0.952215
v 1.288996 -0.448011 -0.952215
vt 0.389498 0.984695
vt 0.389498 0.066067
vt 0.610502 0.984695
vt 0.640305 0.066067
vt 0.389691 0.190296
vt 0.610309 0.190296
vt 0.639991 0.200264
vt 0.140305 0.038921
vt 0.389203 0.483188
vt 0.610797 0.483188
vt 0.859247 0.217260
vt 0.859695 0.038921
vt 0.610502 0.765305
vt 0.389498 0.719264
vt 0.610502 0.719264
vt 0.610502 0.066067
vt 0.389691 0.263365
vt 0.610309 0.263365
vt 0.389203 0.534940
vt 0.610797 0.534940
vt 0.389498 0.765305
vt 0.359695 0.066067
vt 0.360009 0.200264
vt 0.140753 0.217260
vt 0.375000 0.989654
vt 0.364654 -0.000000
vt 0.384867 -0.000000
vt 0.384867 1.000000
vt 0.374903 0.064309
vt 0.635346 -0.000000
vt 0.625000 0.989654
vt 0.625096 0.064236
vt 0.615133 1.000000
vt 0.615133 -0.000000
vt 0.364549 0.250000
vt 0.375000 0.260451
vt 0.374844 0.192697
vt 0.388984 0.235834
vt 0.625000 0.260451
vt 0.635451 0.250000
vt 0.611016 0.235834
vt 0.625157 0.192771
vt 0.125000 0.229384
vt 0.375000 0.520616
vt 0.375000 0.491300
vt 0.133700 0.250000
vt 0.388799 0.501302
vt 0.625000 0.520616
vt 0.875000 0.229384
vt 0.611201 0.501302
vt 0.866300 0.250000
vt 0.625000 0.491300
vt 0.135317 -0.000000
vt 0.375000 0.760317
vt 0.375000 0.729501
vt 0.125000 0.020499
vt 0.388928 0.748158
vt 0.625000 0.760317
vt 0.864683 -0.000000
vt 0.611072 0.748158
vt 0.875000 0.020499
vt 0.625000 0.729501
vt 0.375000 1.000000
vt 0.375000 0.000000
vt 0.625000 0.000000
vt 0.625000 1.000000
vt 0.375000 0.250000
vt 0.625000 0.250000
vt 0.125000 0.250000
vt 0.375000 0.500000
vt 0.625000 0.500000
vt 0.875000 0.250000
vt 0.125000 0.000000
vt 0.375000 0.750000
vt 0.625000 0.750000
vt 0.875000 0.000000
vn -0.013804 -0.999721 0.019180
vn -0.381112 -0.924422 0.014034
vn -0.381059 -0.924443 -0.014129
vn -0.013832 -0.999721 -0.019152
vn -0.924298 -0.381539 0.010094
vn -0.997925 -0.063516 0.010542
vn -0.997787 -0.061178 -0.026040
vn -0.924302 -0.381527 -0.010137
vn -0.012940 -0.111696 0.993658
vn -0.007264 -0.381861 0.924191
vn 0.007264 -0.381861 0.924191
vn 0.012940 -0.111696 0.993658
vn -0.010171 -0.924307 0.381515
vn 0.013804 -0.999721 0.019180
vn 0.010171 -0.924307 0.381515
vn -0.922768 -0.076181 0.377750
vn -0.918705 0.047521 0.392075
vn -0.999106 0.038403 0.017679
vn -0.370637 -0.075810 0.925679
vn -0.013148 0.092195 0.995654
vn -0.367371 0.068363 0.927559
vn 0.997925 -0.063516 0.010542
vn 0.924298 -0.381539 0.010094
vn 0.924302 -0.381527 -0.010137
vn 0.997787 -0.061178 -0.026040
vn 0.381112 -0.924422 0.014034
vn 0.013832 -0.999721 -0.019152
vn 0.381059 -0.924443 -0.014129
vn 0.370637 -0.075811 0.925679
vn 0.367371 0.068363 0.927558
vn 0.013148 0.092195 0.995654
vn 0.922768 -0.076182 0.377751
vn 0.999106 0.038403 0.017679
vn 0.918705 0.047521 0.392075
vn -0.924338 0.367401 0.103035
vn -0.926966 0.366918 0.078135
vn -0.995434 0.094506 -0.013396
vn -0.385993 0.887558 0.251496
vn -0.016141 0.962168 0.271979
vn -0.011656 0.971649 0.236140
vn -0.388678 0.893223 0.226015
vn -0.010370 0.832729 0.553583
vn 0.010370 0.832729 0.553583
vn 0.016141 0.962168 0.271979
vn -0.007627 0.320957 0.947063
vn 0.007627 0.320957 0.947063
vn 0.385993 0.887558 0.251495
vn 0.388678 0.893223 0.226015
vn 0.011656 0.971649 0.236140
vn 0.924337 0.367402 0.103036
vn 0.995434 0.094506 -0.013396
vn 0.926966 0.366919 0.078136
vn -0.931956 0.047519 -0.359443
vn -0.927682 -0.028188 -0.372306
vn -0.391404 0.028995 -0.919762
vn -0.013045 0.050753 -0.998626
vn -0.013833 -0.043140 -0.998973
vn -0.388154 -0.029055 -0.921136
vn -0.007255 0.441115 -0.897421
vn 0.007255 0.441115 -0.897421
vn 0.013045 0.050753 -0.998626
vn -0.010248 0.980758 -0.194960
vn 0.010248 0.980758 -0.194961
vn 0.391404 0.028995 -0.919762
vn 0.388154 -0.029055 -0.921136
vn 0.013833 -0.043140 -0.998973
vn 0.931956 0.047519 -0.359444
vn 0.927682 -0.028188 -0.372306
vn -0.010107 -0.924295 -0.381545
vn 0.010107 -0.924295 -0.381545
vn -0.007235 -0.381863 -0.924190
vn 0.007235 -0.381863 -0.924190
vn -0.888055 -0.325560 0.324605
vn -0.326101 -0.887909 0.324461
vn -0.325797 -0.325119 0.887780
vn 0.326102 -0.887909 0.324462
vn 0.888055 -0.325561 0.324606
vn 0.325797 -0.325120 0.887780
vn -0.319746 0.808237 0.494485
vn -0.867924 0.302327 0.394088
vn -0.320201 0.269360 0.908249
vn 0.867924 0.302327 0.394089
vn 0.319745 0.808237 0.494485
vn 0.320200 0.269360 0.908249
vn -0.353230 0.373323 -0.857822
vn -0.913262 0.323067 -0.248155
vn -0.353154 0.925053 -0.139858
vn 0.913261 0.323069 -0.248155
vn 0.353229 0.373324 -0.857822
vn 0.353154 0.925053 -0.139857
vn -0.324832 -0.887944 -0.325636
vn -0.887868 -0.325097 -0.325579
vn -0.324887 -0.325210 -0.888080
vn 0.887868 -0.325097 -0.325580
vn 0.324833 -0.887944 -0.325636
vn 0.324887 -0.325210 -0.888080
s 1
g Confirm Button
f 44/57/79 43/81/80 79/110/81 84/77/82
s 2
f 43/82/83 48/78/84 80/64/85 79/109/86
s 3
f 46/58/87 45/83/88 53/90/89 52/72/90
s 1
f 45/84/91 44/57/79 54/59/92 53/89/93
s 2
f 48/78/84 47/85/94 57/93/95 56/79/96
s 3
f 47/85/97 46/58/87 58/61/98 57/93/99
s 4
f 50/60/100 49/86/101 85/115/102 90/68/103
s 1
f 49/87/104 54/59/92 86/69/105 85/114/106
s 3
f 52/72/90 51/88/107 65/98/108 64/62/109
s 4
f 51/88/110 50/60/100 66/63/111 65/98/112
s 2
f 56/79/96 55/91/113 69/102/114 68/80/115
s 5
f 55/92/116 60/73/117 70/65/118 69/101/119
f 60/73/117 59/94/120 63/97/121 62/74/122
s 3
f 59/94/123 58/61/98 64/62/109 63/97/124
s 5
f 62/74/122 61/95/125 77/108/126 76/66/127
s 4
f 61/96/128 66/63/111 78/67/129 77/107/130
s 2
f 68/80/115 67/99/131 81/112/132 80/64/85
s 6
f 67/100/133 72/75/134 82/70/135 81/111/136
f 72/75/134 71/103/137 75/106/138 74/76/139
s 5
f 71/103/140 70/65/118 76/66/127 75/106/141
s 6
f 74/76/139 73/104/142 89/118/143 88/71/144
s 4
f 73/105/145 78/67/129 90/68/103 89/117/146
s 1
f 84/77/82 83/113/147 87/116/148 86/69/105
s 6
f 83/113/149 82/70/135 88/71/144 87/116/150
s 3
f 46/58/87 52/72/90 64/62/109 58/61/98
s 5
f 60/73/117 62/74/122 76/66/127 70/65/118
s 6
f 72/75/134 74/76/139 88/71/144 82/70/135
s 1
f 84/77/82 86/69/105 54/59/92 44/57/79
s 4
f 50/60/100 90/68/103 78/67/129 66/63/111
s 2
f 80/64/85 48/78/84 56/79/96 68/80/115
f 47/85/94 48/78/84 43/82/83 91/120/151
s 1
f 43/81/80 44/57/79 45/84/91 91/119/152
s 3
f 45/83/88 46/58/87 47/85/97 91/120/153
s 1
f 53/89/93 54/59/92 49/87/104 92/122/154
s 4
f 49/86/101 50/60/100 51/88/110 92/121/155
s 3
f 51/88/107 52/72/90 53/90/89 92/121/156
s 5
f 59/94/120 60/73/117 55/92/116 93/123/157
s 2
f 55/91/113 56/79/96 57/93/95 93/123/158
s 3
f 57/93/99 58/61/98 59/94/123 93/123/159
s 4
f 65/98/112 66/63/111 61/96/128 94/124/160
s 5
f 61/95/125 62/74/122 63/97/121 94/124/161
s 3
f 63/97/124 64/62/109 65/98/108 94/124/162
s 6
f 71/103/137 72/75/134 67/100/133 95/126/163
s 2
f 67/99/131 68/80/115 69/102/114 95/125/164
s 5
f 69/101/119 70/65/118 71/103/140 95/126/165
s 4
f 77/107/130 78/67/129 73/105/145 96/128/166
s 6
f 73/104/142 74/76/139 75/106/138 96/127/167
s 5
f 75/106/141 76/66/127 77/108/126 96/127/168
s 1
f 83/113/147 84/77/82 79/110/81 97/130/169
s 2
f 79/109/86 80/64/85 81/112/132 97/129/170
s 6
f 81/111/136 82/70/135 83/113/149 97/130/171
s 4
f 89/117/146 90/68/103 85/115/102 98/132/172
s 1
f 85/114/106 86/69/105 87/116/148 98/131/173
s 6
f 87/116/150 88/71/144 89/118/143 98/131/174
