# This file uses centimeters as units for non-parametric coordinates.

v 2.037215 3.036290 -2.950546
v 2.110431 3.213049 -2.950546
v 2.287190 3.286265 -2.950546
v 3.426085 3.036290 -2.950546
v 3.176110 3.286265 -2.950546
v 3.352870 3.213049 -2.950546
v 2.110431 2.359481 -2.950546
v 2.037215 2.536240 -2.950546
v 2.287190 2.286265 -2.950546
v 3.352870 2.359481 -2.950546
v 3.176110 2.286265 -2.950546
v 3.426085 2.536240 -2.950546
v 2.294655 3.248738 -2.819602
v 2.287190 3.286265 -2.845788
v 3.176110 3.286265 -2.845788
v 3.168646 3.248738 -2.819602
v 2.287190 2.286265 -2.845788
v 2.294655 2.323792 -2.819602
v 3.168646 2.323792 -2.819602
v 3.176110 2.286265 -2.845788
v 2.037215 3.036290 -2.845788
v 2.074743 3.028826 -2.819602
v 2.074743 2.543705 -2.819602
v 2.037215 2.536240 -2.845788
v 3.388558 3.028826 -2.819602
v 3.426085 3.036290 -2.845788
v 3.426085 2.536240 -2.845788
v 3.388558 2.543705 -2.819602
v 2.110431 3.213049 -2.845788
v 2.139153 3.184327 -2.819602
v 3.352870 3.213049 -2.845788
v 3.324147 3.184327 -2.819602
v 2.110431 2.359481 -2.845788
v 2.139153 2.388203 -2.819602
v 3.352870 2.359481 -2.845788
v 3.324147 2.388203 -2.819602
v 2.498114 2.984342 -2.819602
v 2.519664 3.044770 -2.819602
v 2.574587 3.077926 -2.819602
v 2.638096 3.068846 -2.819602
v 3.061474 2.819769 -2.819602
v 3.061474 2.754315 -2.819602
v 3.018111 2.705287 -2.819602
v 3.018111 2.868797 -2.819602
v 2.574587 2.496158 -2.819602
v 2.519664 2.529314 -2.819602
v 2.498114 2.589741 -2.819602
v 2.638096 2.505238 -2.819602
v 2.624586 3.027142 -2.742381
v 2.638096 3.068846 -2.766420
v 3.018111 2.868797 -2.766420
v 2.990992 2.834257 -2.742381
v 2.990992 2.739827 -2.742381
v 3.018111 2.705287 -2.766420
v 2.638096 2.505238 -2.766420
v 2.624586 2.546942 -2.742381
v 2.498114 2.984342 -2.766420
v 2.541310 2.976871 -2.742381
v 2.541310 2.597213 -2.742381
v 2.498114 2.589741 -2.766420
v 2.519664 3.044770 -2.766420
v 2.555176 3.015750 -2.742381
v 2.574587 3.077926 -2.766420
v 2.583723 3.032984 -2.742381
v 3.061474 2.819769 -2.766420
v 3.018277 2.803407 -2.742381
v 3.061474 2.754315 -2.766420
v 3.018277 2.770677 -2.742381
v 2.574587 2.496158 -2.766420
v 2.583723 2.541100 -2.742381
v 2.519664 2.529314 -2.766420
v 2.555176 2.558333 -2.742381
vt 0.375000 0.687506
vt 0.375000 0.562494
vt 0.625000 0.562494
vt 0.625000 0.687506
vt 0.625000 0.500000
vt 0.375000 0.750000
vt 0.375000 0.299995
vt 0.439360 0.240618
vt 0.561609 0.241587
vt 0.435056 1.000000
vt 0.380077 1.000000
vt 0.439360 1.000000
vt 0.560640 1.000000
vt 0.564944 1.000000
vt 0.625000 0.950005
vt 0.619923 1.000000
vt 0.325005 0.000000
vt 0.392335 0.017335
vt 0.674995 0.250000
vt 0.616587 0.241587
vt 0.617820 0.187842
vt 0.615618 0.064360
vt 0.437494 0.500000
vt 0.562506 0.299995
vt 0.437494 0.950005
vt 0.562506 0.750000
vt 0.674995 0.062494
vt 0.875000 0.187506
vt 0.125000 0.062494
vt 0.325005 0.187506
vt 0.325005 0.250000
vt 0.125000 0.250000
vt 0.125000 0.187506
vt 0.437494 0.299995
vt 0.375000 0.500000
vt 0.625000 0.299995
vt 0.562506 0.500000
vt 0.674995 0.187506
vt 0.875000 0.250000
vt 0.375000 0.950005
vt 0.437494 0.750000
vt 0.325005 0.062494
vt 0.125000 0.000000
vt 0.674995 0.000000
vt 0.875000 0.000000
vt 0.875000 0.062494
vt 0.562506 0.950005
vt 0.625000 0.750000
vt 0.607665 0.017335
vt 0.385155 0.239845
vt 0.379528 0.190494
vt 0.384382 0.064360
vt 0.439360 0.009382
vt 0.560640 0.009382
vt 0.402090 0.737509
vt 0.375000 0.750000
vt 0.375000 0.694375
vt 0.375000 0.555624
vt 0.375000 0.500000
vt 0.401933 0.510233
vt 0.426970 0.523964
vt 0.568057 0.589022
vt 0.599332 0.597342
vt 0.625715 0.615609
vt 0.568057 0.646516
vt 0.426970 0.722142
vt 0.419376 0.227729
vt 0.428355 0.315952
vt 0.402639 0.322498
vt 0.401979 0.236420
vt 0.580753 0.140359
vt 0.573201 0.283722
vt 0.601872 0.130412
vt 0.604727 0.278779
vt 0.583043 0.999990
vt 0.567671 0.889955
vt 0.625214 0.880331
vt 0.619218 0.999988
vt 0.567496 0.999990
vt 0.432429 0.999997
vt 0.426866 0.913502
vt 0.426575 0.998816
vt 0.423915 0.985983
vt 0.416274 0.904550
vt 0.297176 0.194376
vt 0.391387 0.192214
vt 0.391387 0.228004
vt 0.297176 0.250000
vt 0.297176 0.055625
vt 0.391658 0.057586
vt 0.299739 0.013654
vt 0.397005 0.043701
vt 0.375000 0.327823
vt 0.614684 0.120083
vt 0.632396 0.270551
vt 0.420924 0.971554
vt 0.418619 0.960437
vt 0.404788 0.893708
vt 0.125000 0.055624
vt 0.125000 0.194376
vt 0.125000 0.250000
vt 0.125000 0.000000
vt 0.408013 0.037201
vt 0.423771 0.038625
vt 0.577002 0.103501
vn 0.000000 0.000000 -1.000000
vn 0.000000 0.000000 -1.000000
vn 0.000000 0.000000 -1.000000
vn 0.000000 0.000000 -1.000000
vn 0.000000 0.000000 -1.000000
vn 0.000000 0.000000 -1.000000
vn 0.000000 0.000000 -1.000000
vn 0.000000 0.000000 -1.000000
vn 0.000000 0.000000 -1.000000
vn 0.000000 0.000000 -1.000000
vn 0.000000 0.000000 -1.000000
vn 0.000000 0.000000 -1.000000
vn -0.037235 0.566860 0.822972
vn -0.037235 0.566860 0.822973
vn -0.383138 0.383138 0.840483
vn -0.383138 0.383138 0.840483
vn 0.037236 0.566860 0.822973
vn 0.037235 0.566860 0.822973
vn 0.383136 0.383138 0.840484
vn 0.383136 0.383137 0.840484
vn -0.037236 -0.566860 0.822973
vn -0.037235 -0.566860 0.822973
vn -0.383136 -0.383138 0.840483
vn -0.383136 -0.383138 0.840483
vn 0.037235 -0.566860 0.822972
vn 0.037236 -0.566860 0.822972
vn 0.383138 -0.383138 0.840482
vn 0.383138 -0.383139 0.840482
vn -0.563354 0.058852 0.824117
vn -0.563354 0.058852 0.824117
vn -0.563353 -0.058852 0.824118
vn -0.563353 -0.058852 0.824118
vn 0.563353 0.058852 0.824118
vn 0.563353 0.058852 0.824118
vn 0.563354 -0.058852 0.824117
vn 0.563353 -0.058852 0.824117
vn -0.068542 0.997648 0.000000
vn -0.068542 0.997648 0.000000
vn 0.068542 0.997648 0.000000
vn 0.068542 0.997648 0.000000
vn -0.068542 -0.997648 0.000000
vn -0.068542 -0.997648 0.000000
vn 0.068542 -0.997648 0.000000
vn 0.068542 -0.997648 0.000000
vn 0.994200 -0.107551 0.000000
vn 0.994200 -0.107551 0.000000
vn 0.994200 0.107551 0.000000
vn 0.994200 0.107551 0.000000
vn -0.994200 -0.107551 0.000000
vn -0.994200 -0.107551 0.000000
vn -0.994200 0.107551 0.000000
vn -0.994200 0.107551 0.000000
vn -0.707107 0.707107 0.000000
vn -0.707107 0.707107 0.000000
vn 0.707106 0.707107 0.000000
vn 0.707106 0.707107 0.000000
vn -0.707107 -0.707107 0.000000
vn -0.707107 -0.707107 0.000000
vn 0.707106 -0.707107 0.000000
vn 0.707106 -0.707107 0.000000
vn 0.000000 0.000000 1.000000
vn 0.000000 0.000000 1.000000
vn 0.000000 0.000000 1.000000
vn 0.000000 0.000000 1.000000
vn 0.000000 0.000000 1.000000
vn 0.000000 0.000000 1.000000
vn 0.000000 0.000000 1.000000
vn 0.000000 0.000000 1.000000
vn 0.000000 0.000000 1.000000
vn 0.000000 0.000000 1.000000
vn 0.000000 0.000000 1.000000
vn 0.000000 0.000000 1.000000
vn 0.000001 0.000000 -1.000000
vn 0.000001 0.000000 -1.000000
vn 0.000001 0.000000 -1.000000
vn 0.000001 0.000000 -1.000000
vn 0.000001 0.000000 -1.000000
vn 0.000001 0.000000 -1.000000
vn 0.000001 0.000000 -1.000000
vn 0.000001 0.000000 -1.000000
vn 0.000001 0.000000 -1.000000
vn 0.000001 0.000000 -1.000000
vn 0.000001 0.000000 -1.000000
vn 0.000001 0.000000 -1.000000
vn 0.209279 0.436559 0.874996
vn 0.209279 0.436559 0.874996
vn -0.086139 0.456225 0.885685
vn -0.086140 0.456225 0.885685
vn 0.242343 0.418795 0.875146
vn 0.242343 0.418795 0.875146
vn 0.429141 0.170266 0.887045
vn 0.429141 0.170265 0.887045
vn 0.242344 -0.418795 0.875146
vn 0.242344 -0.418795 0.875146
vn 0.429140 -0.170265 0.887045
vn 0.429140 -0.170265 0.887045
vn 0.209279 -0.436560 0.874996
vn 0.209279 -0.436560 0.874996
vn -0.086141 -0.456225 0.885685
vn -0.086140 -0.456225 0.885685
vn -0.483588 0.019605 0.875076
vn -0.483588 0.019605 0.875076
vn -0.363576 0.288746 0.885685
vn -0.363576 0.288746 0.885685
vn -0.483588 -0.019605 0.875076
vn -0.483588 -0.019605 0.875076
vn -0.363577 -0.288747 0.885685
vn -0.363576 -0.288747 0.885685
vn 0.426484 0.904495 0.000000
vn 0.426484 0.904495 0.000000
vn 0.507068 0.861906 0.000000
vn 0.507068 0.861906 0.000000
vn 0.426484 -0.904495 0.000000
vn 0.426484 -0.904495 0.000000
vn 0.507068 -0.861906 0.000000
vn 0.507068 -0.861906 0.000000
vn -0.998880 -0.047306 0.000000
vn -0.998880 -0.047306 0.000000
vn -0.998880 0.047306 0.000000
vn -0.998880 0.047306 0.000000
vn -0.774344 0.632764 0.000000
vn -0.774344 0.632764 0.000000
vn -0.199217 0.979956 0.000000
vn -0.199217 0.979956 0.000000
vn 0.935162 0.354219 0.000000
vn 0.935162 0.354219 0.000000
vn 0.935162 -0.354219 0.000000
vn 0.935162 -0.354219 0.000000
vn -0.199217 -0.979956 0.000000
vn -0.199217 -0.979956 0.000000
vn -0.774344 -0.632764 0.000000
vn -0.774344 -0.632764 0.000000
vn -0.000001 0.000000 1.000000
vn -0.000001 0.000000 1.000000
vn -0.000001 0.000000 1.000000
vn -0.000001 0.000000 1.000000
vn -0.000001 0.000000 1.000000
vn -0.000001 0.000000 1.000000
vn -0.000001 0.000000 1.000000
vn -0.000001 0.000000 1.000000
vn -0.000001 0.000000 1.000000
vn -0.000001 0.000000 1.000000
vn -0.000001 0.000000 1.000000
vn -0.000001 0.000000 1.000000
s off
f 10/48/1 11/26/2 9/41/3 7/6/4 8/1/5 1/2/6 2/35/7 3/23/8 5/37/9 6/5/10 4/3/11 12/4/12
s 1
f 13/8/13 14/34/14 29/7/15 30/50/16
f 14/34/14 13/8/13 16/9/17 15/24/18
f 15/24/18 16/9/17 32/20/19 31/36/20
f 17/25/21 18/10/22 34/11/23 33/40/24
f 18/12/22 17/25/21 20/47/25 19/13/26
f 19/14/26 20/47/25 35/15/27 36/16/28
f 21/30/29 22/51/30 30/50/16 29/31/15
f 22/51/30 21/30/29 24/42/31 23/52/32
f 23/52/32 24/42/31 33/17/24 34/18/23
f 25/21/33 26/38/34 31/19/20 32/20/19
f 26/38/34 25/21/33 28/22/35 27/27/36
f 27/27/36 28/22/35 36/49/28 35/44/27
s 3
f 3/23/37 14/34/38 15/24/39 5/37/40
f 17/25/41 9/41/42 11/26/43 20/47/44
f 27/27/45 12/46/46 4/28/47 26/38/48
f 8/29/49 24/42/50 21/30/51 1/33/52
f 21/30/51 29/31/53 2/32/54 1/33/52
f 29/7/53 14/34/38 3/23/37 2/35/54
f 15/24/39 31/36/55 6/5/56 5/37/40
f 31/19/55 26/38/48 4/28/47 6/39/56
f 17/25/41 33/40/57 7/6/58 9/41/42
f 33/17/57 24/42/50 8/29/49 7/43/58
f 27/27/45 35/44/59 10/45/60 12/46/46
f 35/15/59 20/47/44 11/26/43 10/48/60
s off
f 36/49/61 28/22/62 25/21/63 32/20/64 16/9/65 13/8/66 30/50/67 22/51/68 23/52/69 34/18/70 18/53/71 19/54/72
f 45/55/73 46/56/74 47/57/75 37/58/76 38/59/77 39/60/78 40/61/79 44/62/80 41/63/81 42/64/82 43/65/83 48/66/84
s 7
f 49/67/85 50/68/86 63/69/87 64/70/88
f 50/68/86 49/67/85 52/71/89 51/72/90
f 51/72/90 52/71/89 66/73/91 65/74/92
f 53/75/93 54/76/94 67/77/95 68/78/96
f 54/76/94 53/79/93 56/80/97 55/81/98
f 55/81/98 56/82/97 70/83/99 69/84/100
f 57/85/101 58/86/102 62/87/103 61/88/104
f 58/86/102 57/85/101 60/89/105 59/90/106
f 59/90/106 60/89/105 71/91/107 72/92/108
f 61/93/104 62/87/103 64/70/88 63/69/87
f 65/74/92 66/73/91 68/94/96 67/95/95
f 69/84/100 70/96/99 72/97/108 71/98/107
s 10
f 40/61/109 50/68/110 51/72/111 44/62/112
f 55/81/113 48/66/114 43/65/115 54/76/116
f 47/99/117 60/89/118 57/85/119 37/100/120
f 57/85/119 61/88/121 38/101/122 37/100/120
f 61/93/121 63/69/123 39/60/124 38/59/122
f 63/69/123 50/68/110 40/61/109 39/60/124
f 51/72/111 65/74/125 41/63/126 44/62/112
f 65/74/125 67/95/127 42/64/128 41/63/126
f 67/77/127 54/76/116 43/65/115 42/64/128
f 55/81/113 69/84/129 45/55/130 48/66/114
f 69/84/129 71/98/131 46/56/132 45/55/130
f 71/91/131 60/89/118 47/99/117 46/102/132
s off
f 72/92/133 70/103/134 56/104/135 53/105/136 68/94/137 66/73/138 52/71/139 49/67/140 64/70/141 62/87/142 58/86/143 59/90/144
